<svg xmlns="http://www.w3.org/2000/svg" viewBox="0 0 520 640" role="img" aria-label="FORMMIX ürün kataloğu kapağı">
  <defs>
    <linearGradient id="cv" x1="0" y1="0" x2="1" y2="1">
      <stop offset="0" stop-color="#0E2A47"/>
      <stop offset="1" stop-color="#0A2038"/>
    </linearGradient>
  </defs>
  <rect width="520" height="640" fill="url(#cv)"/>
  <rect x="0" y="0" width="520" height="12" fill="#F26A21"/>
  <circle cx="430" cy="540" r="180" fill="#F26A21" opacity="0.12"/>

  <!-- Logo -->
  <g transform="translate(60,64)">
    <path transform="scale(1.1)" fill="#F26A21" d="M8 2 3 6l2 4 2-1v10h10V9l2 1 2-4-5-4c-.6 1.9-5.4 1.9-6 0z"/>
    <text x="42" y="22" font-family="'Segoe UI', Arial, sans-serif" font-size="26" font-weight="800"><tspan fill="#fff">FORM</tspan><tspan fill="#F26A21">MIX</tspan></text>
  </g>

  <!-- Polo ikonu -->
  <g transform="translate(160,210)">
    <polygon points="40,20 0,52 22,76 48,56" fill="#ffffff"/>
    <polygon points="160,20 200,52 178,76 152,56" fill="#ffffff"/>
    <rect x="36" y="18" width="128" height="190" rx="18" fill="#ffffff"/>
    <ellipse cx="100" cy="20" rx="30" ry="12" fill="#0E2A47"/>
    <polygon points="74,18 100,40 100,18" fill="#F26A21"/>
    <polygon points="126,18 100,40 100,18" fill="#F26A21"/>
    <rect x="95" y="30" width="10" height="64" rx="5" fill="#F26A21"/>
    <circle cx="140" cy="64" r="20" fill="#F26A21"/>
    <path d="M132 64 l5 5 l10 -11" fill="none" stroke="#fff" stroke-width="4" stroke-linecap="round" stroke-linejoin="round"/>
  </g>

  <text x="60" y="510" font-family="'Segoe UI', Arial, sans-serif" font-size="44" font-weight="800" fill="#ffffff">ÜRÜN</text>
  <text x="60" y="560" font-family="'Segoe UI', Arial, sans-serif" font-size="44" font-weight="800" fill="#F26A21">KATALOĞU</text>
  <text x="62" y="598" font-family="'Segoe UI', Arial, sans-serif" font-size="20" font-weight="500" fill="#c8d4e2">Kurumsal İş Kıyafetleri</text>
</svg>
